<svg xmlns="http://www.w3.org/2000/svg" width="25.03" height="25.03" viewBox="0 0 25.03 25.03"><defs><style>.a{opacity:0.36;}</style></defs><g class="a" transform="translate(215.515 215.515) rotate(180)"><g transform="translate(190.485 190.485)"><g transform="translate(0 0)"><path d="M17,4.485A12.515,12.515,0,1,0,29.515,17,12.524,12.524,0,0,0,17,4.485Zm3.6,13-6.128,6.79a.771.771,0,0,1-1.036.058.722.722,0,0,1-.058-1.007L19.071,17,13.4,10.671a.713.713,0,1,1,1.064-.949l6.128,6.79A.713.713,0,0,1,20.6,17.489Z" transform="translate(-4.485 -4.485)"/></g></g></g></svg>