<svg xmlns="http://www.w3.org/2000/svg" width="18.593" height="18.583" viewBox="0 0 18.593 18.583"><defs><style>.a{fill:#2dcdff;}</style></defs><g transform="translate(0 0)"><g transform="translate(0 0)"><path class="a" d="M16.792,7.263l-10.7,10.7L6,17.867l-.328-.328-.465-.44L2.484,14.374l10.71-10.71Z" transform="translate(-0.866 -0.999)"/><path class="a" d="M4.845,19.991l-3.376.923a.712.712,0,0,1-.161,0,.624.624,0,0,1-.6-.8l.9-3.376Z" transform="translate(-0.682 -2.336)"/><path class="a" d="M20.6,4.475l-1.6,1.6-.873-.873h0L16.26,3.348l-.873-.867,1.6-1.61a.619.619,0,0,1,.2-.13.65.65,0,0,1,.576.05l.1.081L20.6,3.6a.619.619,0,0,1,0,.88Z" transform="translate(-2.186 -0.695)"/></g></g></svg>