<svg xmlns="http://www.w3.org/2000/svg" width="19.789" height="18.886" viewBox="0 0 19.789 18.886"><defs><style>.a{fill:#b8b8b8;}</style></defs><g transform="translate(-189.449 -190.866)"><g transform="translate(189.449 190.866)"><g transform="translate(0 0)"><path class="a" d="M22.287,11.455l-1.867-.271-3.105-.452a1.359,1.359,0,0,1-.912-.662L15.014,7.256l-.835-1.692c-.46-.931-1.211-.931-1.671,0l-.835,1.692L10.284,10.07a1.358,1.358,0,0,1-.912.662l-3.1.452L4.4,11.455c-1.027.149-1.259.864-.516,1.588L5.236,14.36l2.247,2.19a1.357,1.357,0,0,1,.348,1.071L7.3,20.714l-.319,1.86c-.175,1.023.433,1.465,1.351.982L10,22.678l2.777-1.46a1.362,1.362,0,0,1,1.127,0l2.777,1.46,1.671.878c.918.483,1.527.041,1.351-.982l-.319-1.86-.53-3.093a1.356,1.356,0,0,1,.348-1.071l2.247-2.19L22.8,13.043C23.546,12.319,23.314,11.6,22.287,11.455Z" transform="translate(-3.449 -4.866)"/></g></g></g></svg>