<svg xmlns="http://www.w3.org/2000/svg" width="8.787" height="8.386" viewBox="0 0 8.787 8.386"><defs><style>.a{fill:#b8b8b8;}</style></defs><g transform="translate(0)"><g transform="translate(0 0)"><g transform="translate(0 0)"><path class="a" d="M11.813,7.791l-.829-.12-1.379-.2a.6.6,0,0,1-.4-.294L8.584,5.927l-.371-.751c-.2-.413-.538-.413-.742,0L7.1,5.927,6.484,7.177a.6.6,0,0,1-.4.294l-1.379.2-.829.12c-.456.066-.559.384-.229.705l.6.585,1,.973a.6.6,0,0,1,.155.476L5.159,11.9l-.142.826c-.078.454.192.65.6.436l.742-.39,1.233-.648a.6.6,0,0,1,.5,0l1.233.648.742.39c.408.214.678.018.6-.436l-.141-.826-.235-1.373a.6.6,0,0,1,.155-.476l1-.973.6-.585C12.373,8.175,12.27,7.858,11.813,7.791Z" transform="translate(-3.449 -4.866)"/></g></g></g></svg>