<svg xmlns="http://www.w3.org/2000/svg" width="18.257" height="17.424" viewBox="0 0 18.257 17.424"><defs><style>.a{fill:#b8b8b8;}</style></defs><g transform="translate(0)"><g transform="translate(0 0)"><path class="a" d="M20.828,10.944l-1.723-.25-2.865-.417a1.254,1.254,0,0,1-.841-.611l-1.281-2.6L13.348,5.51c-.424-.858-1.117-.858-1.541,0l-.77,1.561-1.281,2.6a1.253,1.253,0,0,1-.841.611l-2.864.417-1.723.25c-.948.138-1.162.8-.476,1.465L5.1,13.625,7.17,15.646a1.252,1.252,0,0,1,.321.988L7,19.487,6.708,21.2c-.162.944.4,1.351,1.247.906L9.5,21.3l2.562-1.347a1.256,1.256,0,0,1,1.04,0L15.659,21.3l1.541.81c.847.445,1.408.038,1.247-.906l-.294-1.716-.489-2.853a1.251,1.251,0,0,1,.321-.988l2.073-2.021L21.3,12.41C21.99,11.742,21.776,11.082,20.828,10.944Z" transform="translate(-3.449 -4.866)"/></g></g></svg>