<svg xmlns="http://www.w3.org/2000/svg" width="12.793" height="12.786" viewBox="0 0 12.793 12.786"><defs><style>.a{fill:#2dcdff;}</style></defs><g transform="translate(0 0)"><g transform="translate(0 0)"><path class="a" d="M12.329,6.14,4.964,13.5l-.06-.068-.226-.226-.32-.3L2.484,11.033,9.853,3.664Z" transform="translate(-1.371 -1.83)"/><path class="a" d="M3.547,18.977l-2.323.635a.49.49,0,0,1-.111,0,.429.429,0,0,1-.413-.55l.622-2.323Z" transform="translate(-0.682 -6.829)"/><path class="a" d="M18.971,3.3l-1.1,1.1-.6-.6h0L15.988,2.52l-.6-.6,1.1-1.108a.426.426,0,0,1,.141-.089.447.447,0,0,1,.4.034L17.1.815l1.875,1.875a.426.426,0,0,1,0,.605Z" transform="translate(-6.304 -0.695)"/></g></g></svg>