<svg xmlns="http://www.w3.org/2000/svg" width="35" height="38.078" viewBox="0 0 35 38.078"><defs><style>.a{opacity:0.35;}.b{fill:#fff;}</style></defs><g class="a" transform="translate(-195.679 -192.9)"><g transform="translate(195.679 192.9)"><g transform="translate(0 0)"><path class="b" d="M41.78,29.321a14.045,14.045,0,0,0,0-6.8l2.166-2.2a2.468,2.468,0,0,0,.38-2.964l-1.1-1.9a2.457,2.457,0,0,0-2.774-1.14l-2.964.76a14.935,14.935,0,0,0-5.966-3.42l-.836-2.964A2.532,2.532,0,0,0,28.289,6.9h-2.2a2.485,2.485,0,0,0-2.394,1.786l-.8,2.926a14.962,14.962,0,0,0-6.042,3.42l-2.964-.76a2.456,2.456,0,0,0-2.736,1.14l-1.1,1.9a2.468,2.468,0,0,0,.342,2.964l2.128,2.2a13.659,13.659,0,0,0-.418,3.458,14.972,14.972,0,0,0,.418,3.382l-2.128,2.166a2.46,2.46,0,0,0-.38,2.964l1.1,1.9a2.477,2.477,0,0,0,2.736,1.178l2.964-.76a15.211,15.211,0,0,0,5.966,3.458l.836,2.964a2.485,2.485,0,0,0,2.394,1.786h2.28a2.52,2.52,0,0,0,2.394-1.824l.8-2.926a14.962,14.962,0,0,0,6.042-3.42l3,.76a2.456,2.456,0,0,0,2.736-1.14l1.1-1.9a2.532,2.532,0,0,0-.38-2.964Zm-14.631,3.99A7.41,7.41,0,1,1,34.6,25.9,7.461,7.461,0,0,1,27.149,33.311Z" transform="translate(-9.679 -6.9)"/></g></g></g></svg>