<svg xmlns="http://www.w3.org/2000/svg" width="16" height="17.407" viewBox="0 0 16 17.407"><defs><style>.a{fill:#a1a1a1;}</style></defs><g transform="translate(-195.679 -192.9)"><g transform="translate(195.679 192.9)"><g transform="translate(0 0)"><path class="a" d="M24.354,17.15a6.421,6.421,0,0,0,0-3.11l.99-1.008a1.128,1.128,0,0,0,.174-1.355l-.5-.869a1.123,1.123,0,0,0-1.268-.521l-1.355.347a6.827,6.827,0,0,0-2.727-1.564l-.382-1.355A1.157,1.157,0,0,0,18.187,6.9H17.179a1.136,1.136,0,0,0-1.094.816L15.72,9.054a6.84,6.84,0,0,0-2.762,1.564L11.6,10.27a1.123,1.123,0,0,0-1.251.521l-.5.869A1.128,1.128,0,0,0,10,13.015l.973,1.008a6.244,6.244,0,0,0-.191,1.581,6.844,6.844,0,0,0,.191,1.546L10,18.14a1.125,1.125,0,0,0-.174,1.355l.5.869a1.133,1.133,0,0,0,1.251.539l1.355-.347a6.954,6.954,0,0,0,2.727,1.581l.382,1.355a1.136,1.136,0,0,0,1.094.816h1.042a1.152,1.152,0,0,0,1.094-.834l.365-1.338a6.84,6.84,0,0,0,2.762-1.564l1.372.347a1.123,1.123,0,0,0,1.251-.521l.5-.869a1.158,1.158,0,0,0-.174-1.355Zm-6.688,1.824a3.388,3.388,0,1,1,3.4-3.388A3.411,3.411,0,0,1,17.666,18.974Z" transform="translate(-9.679 -6.9)"/></g></g></g></svg>