<svg xmlns="http://www.w3.org/2000/svg" width="39.003" height="39.011" viewBox="0 0 39.003 39.011"><defs><style>.a{fill:#aeaeae;}</style></defs><g transform="translate(-186.69 -186.686)"><g transform="translate(186.69 186.686)"><g transform="translate(0 0)"><path class="a" d="M7.7,12.108l6.969-6.982V30.6a1.3,1.3,0,0,0,2.6,0V5.127l6.969,6.982a1.305,1.305,0,1,0,1.846-1.846L16.889,1.071a1.3,1.3,0,0,0-1.846,0L5.851,10.262A1.305,1.305,0,0,0,7.7,12.108Z" transform="translate(3.535 -0.686)"/><path class="a" d="M38.393,13.11a1.3,1.3,0,0,0-1.3,1.3v7.8a3.9,3.9,0,0,1-3.9,3.9h-26a3.9,3.9,0,0,1-3.9-3.9v-7.8a1.3,1.3,0,1,0-2.6,0v7.8a6.5,6.5,0,0,0,6.5,6.5h26a6.5,6.5,0,0,0,6.5-6.5v-7.8A1.3,1.3,0,0,0,38.393,13.11Z" transform="translate(-0.69 10.299)"/></g></g></g></svg>